<mxfile host="app.diagrams.net" modified="2023-12-08T07:43:47.698Z" agent="Mozilla/5.0 (Windows NT 10.0; Win64; x64) AppleWebKit/537.36 (KHTML, like Gecko) Chrome/119.0.0.0 Safari/537.36 Edg/119.0.0.0" etag="WhaqLyOqAEFSqe0Ff65w" version="22.1.7" type="device">
  <diagram name="Page-1" id="qJnbVKemeHBM_u4OPycK">
    <mxGraphModel dx="1295" dy="721" grid="1" gridSize="10" guides="1" tooltips="1" connect="1" arrows="1" fold="1" page="1" pageScale="1" pageWidth="850" pageHeight="1100" math="0" shadow="0">
      <root>
        <mxCell id="0" />
        <mxCell id="1" parent="0" />
        <mxCell id="8tleGjRStwNN1z0vBYw3-9" value="" style="edgeStyle=orthogonalEdgeStyle;rounded=0;orthogonalLoop=1;jettySize=auto;html=1;endArrow=none;endFill=0;" parent="1" source="8tleGjRStwNN1z0vBYw3-1" target="8tleGjRStwNN1z0vBYw3-8" edge="1">
          <mxGeometry relative="1" as="geometry" />
        </mxCell>
        <mxCell id="8tleGjRStwNN1z0vBYw3-1" value="начало" style="rounded=1;whiteSpace=wrap;html=1;" parent="1" vertex="1">
          <mxGeometry x="340" y="60" width="120" height="60" as="geometry" />
        </mxCell>
        <mxCell id="8tleGjRStwNN1z0vBYw3-2" value="" style="endArrow=none;html=1;rounded=0;" parent="1" edge="1">
          <mxGeometry width="50" height="50" relative="1" as="geometry">
            <mxPoint x="460" y="90" as="sourcePoint" />
            <mxPoint x="520" y="90" as="targetPoint" />
          </mxGeometry>
        </mxCell>
        <mxCell id="8tleGjRStwNN1z0vBYw3-3" value="" style="endArrow=none;html=1;rounded=0;" parent="1" edge="1">
          <mxGeometry width="50" height="50" relative="1" as="geometry">
            <mxPoint x="520" y="120" as="sourcePoint" />
            <mxPoint x="520" y="60" as="targetPoint" />
          </mxGeometry>
        </mxCell>
        <mxCell id="8tleGjRStwNN1z0vBYw3-4" value="" style="endArrow=none;html=1;rounded=0;" parent="1" edge="1">
          <mxGeometry width="50" height="50" relative="1" as="geometry">
            <mxPoint x="520" y="60" as="sourcePoint" />
            <mxPoint x="560" y="60" as="targetPoint" />
          </mxGeometry>
        </mxCell>
        <mxCell id="8tleGjRStwNN1z0vBYw3-5" value="" style="endArrow=none;html=1;rounded=0;" parent="1" edge="1">
          <mxGeometry width="50" height="50" relative="1" as="geometry">
            <mxPoint x="520" y="120" as="sourcePoint" />
            <mxPoint x="560" y="120" as="targetPoint" />
          </mxGeometry>
        </mxCell>
        <mxCell id="8tleGjRStwNN1z0vBYw3-6" value="str - строка с параметрами для поиска" style="text;html=1;strokeColor=none;fillColor=none;align=left;verticalAlign=middle;whiteSpace=wrap;rounded=0;" parent="1" vertex="1">
          <mxGeometry x="530" y="75" width="240" height="30" as="geometry" />
        </mxCell>
        <mxCell id="8tleGjRStwNN1z0vBYw3-11" value="" style="edgeStyle=orthogonalEdgeStyle;rounded=0;orthogonalLoop=1;jettySize=auto;html=1;endArrow=none;endFill=0;" parent="1" source="8tleGjRStwNN1z0vBYw3-8" target="8tleGjRStwNN1z0vBYw3-10" edge="1">
          <mxGeometry relative="1" as="geometry" />
        </mxCell>
        <mxCell id="8tleGjRStwNN1z0vBYw3-8" value="стереть все пробелы из str" style="shape=process;whiteSpace=wrap;html=1;backgroundOutline=1;" parent="1" vertex="1">
          <mxGeometry x="340" y="140" width="120" height="60" as="geometry" />
        </mxCell>
        <mxCell id="8tleGjRStwNN1z0vBYw3-15" value="" style="edgeStyle=orthogonalEdgeStyle;rounded=0;orthogonalLoop=1;jettySize=auto;html=1;endArrow=none;endFill=0;" parent="1" source="8tleGjRStwNN1z0vBYw3-10" target="8tleGjRStwNN1z0vBYw3-14" edge="1">
          <mxGeometry relative="1" as="geometry" />
        </mxCell>
        <mxCell id="8tleGjRStwNN1z0vBYw3-10" value="array равен разделённый str на подсьтроки по символу &quot;-&quot;" style="shape=process;whiteSpace=wrap;html=1;backgroundOutline=1;" parent="1" vertex="1">
          <mxGeometry x="340" y="220" width="120" height="60" as="geometry" />
        </mxCell>
        <mxCell id="D-pA7_lplrPV5XaI4wGD-11" value="" style="edgeStyle=orthogonalEdgeStyle;rounded=0;orthogonalLoop=1;jettySize=auto;html=1;endArrow=none;endFill=0;" edge="1" parent="1" source="8tleGjRStwNN1z0vBYw3-12" target="D-pA7_lplrPV5XaI4wGD-2">
          <mxGeometry relative="1" as="geometry" />
        </mxCell>
        <mxCell id="8tleGjRStwNN1z0vBYw3-12" value="цикл A: пока i меньше размера array&amp;nbsp;" style="shape=loopLimit;whiteSpace=wrap;html=1;" parent="1" vertex="1">
          <mxGeometry x="340" y="460" width="120" height="60" as="geometry" />
        </mxCell>
        <mxCell id="D-pA7_lplrPV5XaI4wGD-18" style="edgeStyle=orthogonalEdgeStyle;rounded=0;orthogonalLoop=1;jettySize=auto;html=1;entryX=0.5;entryY=0;entryDx=0;entryDy=0;endArrow=none;endFill=0;" edge="1" parent="1" source="8tleGjRStwNN1z0vBYw3-13" target="D-pA7_lplrPV5XaI4wGD-17">
          <mxGeometry relative="1" as="geometry" />
        </mxCell>
        <mxCell id="8tleGjRStwNN1z0vBYw3-13" value="конец цикла A" style="shape=loopLimit;whiteSpace=wrap;html=1;flipV=1;" parent="1" vertex="1">
          <mxGeometry x="340" y="790" width="120" height="60" as="geometry" />
        </mxCell>
        <mxCell id="D-pA7_lplrPV5XaI4wGD-14" style="edgeStyle=orthogonalEdgeStyle;rounded=0;orthogonalLoop=1;jettySize=auto;html=1;entryX=0.5;entryY=0;entryDx=0;entryDy=0;endArrow=none;endFill=0;" edge="1" parent="1" source="8tleGjRStwNN1z0vBYw3-14" target="D-pA7_lplrPV5XaI4wGD-1">
          <mxGeometry relative="1" as="geometry" />
        </mxCell>
        <mxCell id="8tleGjRStwNN1z0vBYw3-14" value="обработать все элементы array для определения параметров поиска" style="shape=process;whiteSpace=wrap;html=1;backgroundOutline=1;" parent="1" vertex="1">
          <mxGeometry x="310" y="300" width="180" height="60" as="geometry" />
        </mxCell>
        <mxCell id="D-pA7_lplrPV5XaI4wGD-13" value="" style="edgeStyle=orthogonalEdgeStyle;rounded=0;orthogonalLoop=1;jettySize=auto;html=1;endArrow=none;endFill=0;" edge="1" parent="1" source="D-pA7_lplrPV5XaI4wGD-1" target="8tleGjRStwNN1z0vBYw3-12">
          <mxGeometry relative="1" as="geometry" />
        </mxCell>
        <mxCell id="D-pA7_lplrPV5XaI4wGD-1" value="tv - итератор спика на начало" style="rounded=0;whiteSpace=wrap;html=1;" vertex="1" parent="1">
          <mxGeometry x="340" y="380" width="120" height="60" as="geometry" />
        </mxCell>
        <mxCell id="D-pA7_lplrPV5XaI4wGD-8" value="" style="edgeStyle=orthogonalEdgeStyle;rounded=0;orthogonalLoop=1;jettySize=auto;html=1;endArrow=none;endFill=0;" edge="1" parent="1" source="D-pA7_lplrPV5XaI4wGD-2" target="D-pA7_lplrPV5XaI4wGD-5">
          <mxGeometry relative="1" as="geometry" />
        </mxCell>
        <mxCell id="D-pA7_lplrPV5XaI4wGD-9" style="edgeStyle=orthogonalEdgeStyle;rounded=0;orthogonalLoop=1;jettySize=auto;html=1;entryX=0;entryY=0.5;entryDx=0;entryDy=0;" edge="1" parent="1" source="D-pA7_lplrPV5XaI4wGD-2" target="D-pA7_lplrPV5XaI4wGD-3">
          <mxGeometry relative="1" as="geometry">
            <Array as="points">
              <mxPoint x="290" y="570" />
              <mxPoint x="290" y="730" />
            </Array>
          </mxGeometry>
        </mxCell>
        <mxCell id="D-pA7_lplrPV5XaI4wGD-2" value="tv.get() удовлетторяет всем обработанным условиям" style="rhombus;whiteSpace=wrap;html=1;" vertex="1" parent="1">
          <mxGeometry x="340" y="540" width="120" height="60" as="geometry" />
        </mxCell>
        <mxCell id="D-pA7_lplrPV5XaI4wGD-6" value="" style="edgeStyle=orthogonalEdgeStyle;rounded=0;orthogonalLoop=1;jettySize=auto;html=1;endArrow=none;endFill=0;" edge="1" parent="1" source="D-pA7_lplrPV5XaI4wGD-3" target="8tleGjRStwNN1z0vBYw3-13">
          <mxGeometry relative="1" as="geometry" />
        </mxCell>
        <mxCell id="D-pA7_lplrPV5XaI4wGD-3" value="tv++" style="rounded=0;whiteSpace=wrap;html=1;" vertex="1" parent="1">
          <mxGeometry x="340" y="700" width="120" height="60" as="geometry" />
        </mxCell>
        <mxCell id="D-pA7_lplrPV5XaI4wGD-7" value="" style="edgeStyle=orthogonalEdgeStyle;rounded=0;orthogonalLoop=1;jettySize=auto;html=1;endArrow=none;endFill=0;" edge="1" parent="1" source="D-pA7_lplrPV5XaI4wGD-5" target="D-pA7_lplrPV5XaI4wGD-3">
          <mxGeometry relative="1" as="geometry" />
        </mxCell>
        <mxCell id="D-pA7_lplrPV5XaI4wGD-5" value="tv.get()" style="shape=parallelogram;perimeter=parallelogramPerimeter;whiteSpace=wrap;html=1;fixedSize=1;" vertex="1" parent="1">
          <mxGeometry x="340" y="620" width="120" height="60" as="geometry" />
        </mxCell>
        <mxCell id="D-pA7_lplrPV5XaI4wGD-15" value="да" style="text;html=1;strokeColor=none;fillColor=none;align=center;verticalAlign=middle;whiteSpace=wrap;rounded=0;" vertex="1" parent="1">
          <mxGeometry x="380" y="590" width="60" height="30" as="geometry" />
        </mxCell>
        <mxCell id="D-pA7_lplrPV5XaI4wGD-16" value="нет" style="text;html=1;strokeColor=none;fillColor=none;align=center;verticalAlign=middle;whiteSpace=wrap;rounded=0;" vertex="1" parent="1">
          <mxGeometry x="300" y="540" width="60" height="30" as="geometry" />
        </mxCell>
        <mxCell id="D-pA7_lplrPV5XaI4wGD-17" value="конец" style="rounded=1;whiteSpace=wrap;html=1;" vertex="1" parent="1">
          <mxGeometry x="340" y="870" width="120" height="60" as="geometry" />
        </mxCell>
      </root>
    </mxGraphModel>
  </diagram>
</mxfile>
